<?xml version="1.0" encoding="UTF-8"?><svg id="Calque_1" xmlns="http://www.w3.org/2000/svg" viewBox="0 0 283.63 40"><defs><style>.cls-1{fill:#26507d;}.cls-1,.cls-2,.cls-3{stroke-width:0px;}.cls-2{fill:#fff;}.cls-3{fill:#008a8c;}</style></defs><path class="cls-1" d="m61.08,33.12c-3.84,0-6.77-1.01-8.8-3.04-2.03-2.03-3.04-5.17-3.04-9.41s.97-7.25,2.92-9.38,4.92-3.19,8.93-3.19c1.27,0,2.56.16,3.85.47,1.3.31,2.56.74,3.78,1.3v5.08c-1.25-.82-2.45-1.4-3.6-1.76-1.15-.36-2.23-.54-3.24-.54-1.42,0-2.61.25-3.58.76-.97.5-1.72,1.34-2.23,2.52-.52,1.18-.77,2.76-.77,4.75s.26,3.56.77,4.72c.52,1.15,1.28,1.97,2.3,2.47,1.02.49,2.27.74,3.76.74.89,0,1.9-.17,3.02-.5,1.13-.34,2.32-.91,3.56-1.73v5.08c-.67.34-1.43.63-2.29.88-.85.25-1.74.45-2.66.59-.92.14-1.82.22-2.68.22Z"/><path class="cls-1" d="m78.29,32.65h-5.33V7.56h5.33v25.09Z"/><path class="cls-1" d="m91.25,33.19c-3.07,0-5.38-.82-6.93-2.47s-2.32-4.06-2.32-7.25c0-3.43.79-5.9,2.36-7.4,1.57-1.5,3.87-2.25,6.89-2.25,2.04,0,3.75.34,5.13,1.03,1.38.68,2.42,1.73,3.13,3.15.71,1.42,1.06,3.24,1.06,5.47,0,3.19-.8,5.61-2.41,7.25-1.61,1.64-3.91,2.47-6.91,2.47Zm0-4.28c.89,0,1.63-.21,2.21-.63s1.03-1.03,1.33-1.84c.3-.8.45-1.79.45-2.97,0-1.34-.15-2.41-.45-3.19-.3-.78-.75-1.34-1.35-1.69-.6-.35-1.33-.52-2.2-.52-.91,0-1.66.18-2.23.54-.58.36-1,.93-1.28,1.71-.28.78-.41,1.83-.41,3.15,0,1.82.32,3.19.95,4.09.64.9,1.62,1.35,2.97,1.35Z"/><path class="cls-1" d="m112.85,33.19c-1.68,0-3.17-.26-4.46-.79-1.3-.53-2.3-1.34-3.02-2.43s-1.08-2.51-1.08-4.27v-11.27h5.36v10.84c0,1.15.26,2.01.77,2.57.52.56,1.34.85,2.47.85s1.98-.28,2.48-.85.76-1.42.76-2.57v-10.84h5.04v11.27c0,2.59-.74,4.49-2.23,5.69-1.49,1.2-3.52,1.8-6.08,1.8Z"/><path class="cls-1" d="m134.63,33.19c-1.42,0-2.72-.16-3.91-.47-1.19-.31-2.21-.83-3.08-1.57-.86-.73-1.54-1.73-2.03-3.01-.49-1.27-.74-2.86-.74-4.75,0-2.95.73-5.28,2.18-6.98,1.45-1.7,3.63-2.56,6.53-2.56.38,0,.89.03,1.51.09.62.06,1.27.21,1.94.45.67.24,1.27.65,1.8,1.22l-1.08,1.66V6.95h5.33v20.95c0,.89-.24,1.66-.72,2.32-.48.66-1.12,1.21-1.93,1.64-.8.43-1.71.76-2.72.99-1.01.23-2.04.34-3.1.34Zm.22-4.5c.86,0,1.57-.11,2.11-.34s.81-.57.81-1.03v-8.39c-.43-.24-.89-.43-1.39-.56-.49-.13-.97-.2-1.42-.2-1.01,0-1.86.17-2.56.5-.7.34-1.22.9-1.57,1.69-.35.79-.52,1.86-.52,3.2,0,1.06.14,1.96.43,2.72.29.76.76,1.34,1.42,1.76s1.55.63,2.68.63Z"/><path class="cls-1" d="m156.08,33.15c-1.22,0-2.33-.06-3.31-.18-.98-.12-1.9-.3-2.74-.54-.84-.24-1.66-.55-2.45-.94v-5.54c1.1.89,2.35,1.56,3.74,2.02,1.39.46,2.71.68,3.96.68,1.1,0,1.95-.21,2.54-.63.59-.42.88-1.06.88-1.93,0-.65-.27-1.17-.81-1.57-.54-.4-1.25-.74-2.14-1.04-.89-.3-1.88-.64-2.99-1.03-.7-.22-1.38-.49-2.05-.83s-1.27-.76-1.8-1.28c-.53-.52-.95-1.15-1.26-1.89-.31-.74-.47-1.66-.47-2.74,0-.98.18-1.93.54-2.84.36-.91.92-1.73,1.67-2.45.76-.72,1.72-1.29,2.9-1.71s2.56-.63,4.14-.63c.98,0,1.85.06,2.61.18s1.48.29,2.18.52c.7.23,1.4.52,2.12.88v5.62c-.55-.46-1.17-.88-1.85-1.28-.68-.4-1.4-.73-2.14-.99-.75-.26-1.52-.41-2.34-.43-.72-.02-1.38.05-1.98.22-.6.17-1.07.44-1.4.81-.34.37-.5.85-.5,1.42,0,.67.2,1.2.61,1.58.41.38.97.7,1.69.95.72.25,1.52.52,2.41.81.98.29,1.89.61,2.72.95.83.35,1.55.79,2.18,1.31.62.53,1.1,1.18,1.44,1.94.34.77.5,1.69.5,2.77,0,1.44-.34,2.75-1.01,3.94-.67,1.19-1.64,2.12-2.92,2.81-1.27.68-2.83,1.03-4.68,1.03Z"/><path class="cls-1" d="m177.14,33.12c-1.3,0-2.52-.19-3.67-.58-1.15-.38-2.17-.96-3.06-1.73-.89-.77-1.58-1.74-2.09-2.92s-.76-2.54-.76-4.1c0-1.66.24-3.1.72-4.34.48-1.24,1.15-2.26,2-3.08.85-.82,1.85-1.43,3.01-1.84,1.15-.41,2.42-.61,3.82-.61.98,0,2,.1,3.04.31,1.04.2,1.96.49,2.75.85v4.61c-.84-.38-1.66-.7-2.47-.95-.8-.25-1.63-.38-2.47-.38-1.51,0-2.73.38-3.65,1.13s-1.39,1.99-1.39,3.69c0,1.8.41,3.16,1.22,4.07.82.91,2.17,1.37,4.07,1.37.89,0,1.75-.16,2.57-.47.83-.31,1.54-.64,2.14-.97v4.57c-.84.43-1.72.77-2.63,1.01-.91.24-1.97.36-3.17.36Z"/><path class="cls-1" d="m193.7,33.19c-1.1,0-2.14-.1-3.11-.31-.97-.2-1.82-.54-2.56-1.01-.73-.47-1.3-1.1-1.71-1.91s-.61-1.81-.61-3.01c0-1.13.23-2.11.7-2.95.47-.84,1.18-1.49,2.14-1.94s2.17-.68,3.64-.68c.82,0,1.61.08,2.38.25.77.17,1.46.4,2.07.68s1.1.6,1.46.94l.22,2.59c-.48-.29-1.06-.52-1.73-.68-.67-.17-1.39-.25-2.16-.25-1.18,0-2.03.17-2.57.52s-.81.89-.81,1.64c0,.46.13.86.4,1.22.26.36.62.64,1.06.83.44.19.91.29,1.39.29,1.22,0,2.08-.08,2.57-.25.49-.17.74-.5.74-1.01v-6.7c0-1.1-.35-1.9-1.06-2.39-.71-.49-1.71-.74-3.01-.74-1.06,0-2.12.19-3.19.56-1.07.37-1.94.82-2.61,1.35v-4.75c.62-.38,1.59-.74,2.9-1.08,1.31-.34,2.78-.5,4.41-.5.58,0,1.21.05,1.91.14.7.1,1.39.27,2.09.52.7.25,1.34.62,1.93,1.1.59.48,1.06,1.09,1.42,1.84.36.74.54,1.67.54,2.77l-.04,8.6c0,1.03-.35,1.87-1.04,2.5-.7.64-1.7,1.1-3.01,1.39-1.31.29-2.89.43-4.73.43Z"/><path class="cls-1" d="m207.28,15.98c.46-.24,1.06-.49,1.8-.74s1.56-.47,2.45-.67c.89-.19,1.78-.35,2.68-.47.9-.12,1.73-.18,2.5-.18,1.63,0,3.02.21,4.18.63,1.15.42,2.03,1.1,2.65,2.03.61.94.92,2.21.92,3.82v12.24h-5.36v-11.16c0-.46-.07-.88-.2-1.26-.13-.38-.33-.71-.59-.99-.26-.28-.62-.49-1.08-.65s-1.01-.23-1.66-.23c-.55,0-1.1.07-1.66.2-.55.13-.97.27-1.26.41v13.68h-5.36V15.98Z"/><path class="cls-1" d="m229.2,15.98c.46-.24,1.06-.49,1.8-.74s1.56-.47,2.45-.67c.89-.19,1.78-.35,2.68-.47.9-.12,1.73-.18,2.5-.18,1.63,0,3.02.21,4.18.63,1.15.42,2.03,1.1,2.65,2.03.61.94.92,2.21.92,3.82v12.24h-5.36v-11.16c0-.46-.07-.88-.2-1.26-.13-.38-.33-.71-.59-.99-.26-.28-.62-.49-1.08-.65s-1.01-.23-1.66-.23c-.55,0-1.1.07-1.66.2-.55.13-.97.27-1.26.41v13.68h-5.36V15.98Z"/><path class="cls-1" d="m259.37,33.19c-1.82,0-3.44-.38-4.84-1.13-1.4-.76-2.5-1.84-3.28-3.24-.78-1.4-1.17-3.08-1.17-5.02,0-3.17.79-5.62,2.36-7.36,1.57-1.74,3.82-2.61,6.75-2.61,2.02,0,3.64.43,4.88,1.3,1.24.86,2.14,2.12,2.72,3.78s.85,3.67.83,6.05h-13.86l-.58-3.42h10.01l-.79,1.69c-.02-1.94-.3-3.31-.83-4.1-.53-.79-1.39-1.19-2.59-1.19-.67,0-1.28.17-1.82.5s-.96.89-1.26,1.67c-.3.78-.45,1.85-.45,3.22,0,1.73.41,3.06,1.24,4,.83.94,2.15,1.4,3.98,1.4.67,0,1.34-.08,2-.23.66-.16,1.28-.34,1.85-.56.58-.22,1.07-.41,1.48-.58v4.61c-.86.36-1.83.65-2.9.88-1.07.23-2.31.34-3.73.34Z"/><path class="cls-1" d="m271.36,32.65v-16.31c.34-.29.94-.62,1.8-.99s1.85-.71,2.97-1.01c1.12-.3,2.24-.45,3.37-.45s2.02.08,2.66.25c.65.17,1.14.38,1.48.65v3.92c-.41-.1-.92-.17-1.55-.22-.62-.05-1.27-.08-1.94-.09-.67-.01-1.31,0-1.91.02-.6.02-1.1.07-1.51.14v14.08h-5.36Z"/><path class="cls-3" d="m40,0h-19.76c-.08,0-.16,0-.24,0C9.03,0,.13,8.83,0,19.76h0v20.24h20.24c10.94-.13,19.76-9.03,19.76-20,0-.08,0-.16,0-.24h0V0Z"/><path class="cls-2" d="m29.26,17.61s0,0,0,0c0-1.87-1.52-3.39-3.39-3.39-1.17,0-2.2.59-2.81,1.49-.99-2.41-3.37-4.11-6.14-4.11-3.66,0-6.63,2.97-6.63,6.63,0,.1,0,.21,0,.31-2.66.08-4.79,2.26-4.79,4.93s2.21,4.94,4.94,4.94h18.51c.05,0,.1,0,.15,0,2.98,0,5.4-2.42,5.4-5.4s-2.33-5.31-5.24-5.4Z"/></svg>